<svg width="1080" height="1080" viewBox="0 0 1080 1080" fill="none" xmlns="http://www.w3.org/2000/svg">
<g clip-path="url(#clip0)">
<rect width="1080" height="1080" fill="#BFB8AD"/>
<g filter="url(#filter0_d)">
<path d="M1152.08 1082.76C1115.62 1123.27 52.9569 652.735 8.39273 612.641C-36.1714 572.546 -52.8617 567.125 -16.409 526.609C20.0437 486.092 1127.6 979.763 1172.17 1019.86C1216.73 1059.95 1188.53 1042.24 1152.08 1082.76Z" fill="#9A4848"/>
<path d="M1150.22 1081.09C1149.74 1081.62 1148.42 1082.32 1145.48 1082.6C1142.66 1082.87 1138.84 1082.72 1134.03 1082.11C1124.41 1080.91 1111.24 1077.95 1094.96 1073.43C1062.43 1064.39 1017.84 1049.2 965.132 1029.69C859.74 990.667 722.139 934.413 584.257 875.628C446.38 816.846 308.252 755.546 201.815 706.439C148.595 681.884 103.311 660.385 69.9492 643.776C53.266 635.471 39.5828 628.398 29.3862 622.783C19.0852 617.11 12.5956 613.059 10.0648 610.782C4.98377 606.211 0.314668 602.132 -3.94726 598.409C-9.13229 593.88 -13.7147 589.877 -17.7032 586.154C-24.9509 579.387 -29.7424 573.975 -32.1128 568.75C-34.3884 563.735 -34.4993 558.734 -31.8735 552.473C-29.1793 546.048 -23.6285 538.371 -14.5505 528.281C-14.0917 527.771 -12.7647 527.081 -9.71956 526.837C-6.81324 526.605 -2.86968 526.818 2.11452 527.507C12.0638 528.883 25.7183 532.09 42.6122 536.929C76.3743 546.601 122.728 562.689 177.538 583.288C287.141 624.478 430.355 683.624 573.849 745.301C717.339 806.975 861.079 871.167 971.726 922.443C1027.05 948.082 1074.09 970.485 1108.68 987.727C1125.98 996.349 1140.14 1003.67 1150.67 1009.46C1161.31 1015.3 1167.97 1019.44 1170.49 1021.72C1181.71 1031.81 1188.03 1037.99 1190.87 1042.28C1192.27 1044.4 1192.57 1045.69 1192.51 1046.52C1192.46 1047.27 1192.07 1048.13 1190.79 1049.32C1189.49 1050.54 1187.55 1051.84 1184.88 1053.5C1184.2 1053.92 1183.47 1054.37 1182.71 1054.84C1180.56 1056.15 1178.12 1057.65 1175.48 1059.39C1168.28 1064.14 1159.51 1070.76 1150.22 1081.09Z" stroke="black" stroke-width="5"/>
</g>
<path d="M982.403 427.883C983.744 425.773 983.743 425.772 983.74 425.771L983.73 425.764L983.689 425.738L983.53 425.637C983.389 425.548 983.178 425.415 982.901 425.24C982.346 424.889 981.522 424.371 980.442 423.695C978.283 422.343 975.104 420.363 971.017 417.848C962.844 412.818 951.042 405.646 936.517 397.076C907.471 379.936 867.526 357.194 823.943 334.793C780.368 312.397 733.109 290.316 689.443 274.519C645.873 258.757 605.525 249.113 575.919 251.923C517.365 257.481 438.216 288.892 375.089 333.418C343.504 355.696 315.807 381.341 296.68 408.812C277.553 436.283 266.891 465.739 269.718 495.526C277.014 572.398 330.638 637.568 398.848 673.585C467.062 709.604 550.377 716.734 617.325 676.831L617.753 676.576L618.051 676.176C679.942 592.981 771.162 531.491 847.062 490.77C884.989 470.422 919.038 455.287 943.602 445.241C955.882 440.218 965.789 436.469 972.621 433.977C976.036 432.73 978.683 431.799 980.473 431.18C981.368 430.87 982.048 430.639 982.504 430.485C982.731 430.408 982.903 430.351 983.017 430.313L983.144 430.271L983.175 430.261L983.182 430.258C983.183 430.258 983.184 430.258 982.403 427.883ZM982.403 427.883L983.744 425.773L988.202 428.607L983.184 430.258L982.403 427.883Z" fill="#9AD0A1" stroke="black" stroke-width="5"/>
<path d="M936.847 344.371C937.69 342.017 937.688 342.017 937.685 342.015L937.672 342.011L937.622 341.993L937.422 341.922C937.246 341.859 936.984 341.766 936.637 341.643C935.944 341.397 934.915 341.034 933.569 340.563C930.876 339.619 926.912 338.242 921.824 336.503C911.649 333.027 896.977 328.107 878.985 322.331C843.003 310.78 793.726 295.801 740.558 282.094C687.4 268.39 630.3 255.943 578.685 249.475C527.172 243.02 480.745 242.465 449.148 252.833C386.544 273.378 313.813 325.918 258.85 389.482C203.952 452.972 166.235 528.107 174.787 593.96C184.457 668.427 240.915 723.165 316.789 742.896C392.676 762.631 488.069 747.428 576.28 682.212L576.683 681.915L576.94 681.485C632.091 589.226 722.321 505.493 798.912 444.758C837.184 414.409 872.001 389.841 897.248 372.861C909.871 364.372 920.099 357.781 927.169 353.314C930.703 351.081 933.448 349.379 935.307 348.236C936.236 347.665 936.945 347.234 937.419 346.946C937.657 346.802 937.836 346.694 937.955 346.622L938.089 346.541L938.122 346.521L938.13 346.517C938.131 346.516 938.132 346.515 936.847 344.371ZM936.847 344.371L937.69 342.017L942.666 343.799L938.132 346.515L936.847 344.371Z" fill="#9AD0A1" stroke="black" stroke-width="5"/>
<path d="M704.824 836.799C687.78 847.467 665.316 842.297 654.648 825.254C643.981 808.21 649.15 785.746 666.193 775.078C683.237 764.411 705.701 769.58 716.369 786.624C727.036 803.667 721.867 826.132 704.824 836.799Z" fill="#DD9D9D" stroke="black" stroke-width="5"/>
<path d="M676.139 827.498C658.726 837.551 636.46 831.585 626.407 814.172C616.353 796.759 622.319 774.494 639.732 764.44C657.145 754.387 679.411 760.353 689.464 777.766C699.518 795.179 693.552 817.445 676.139 827.498Z" fill="#DD9D9D" stroke="black" stroke-width="5"/>
<path d="M652.2 820.402C635.157 831.069 612.692 825.9 602.025 808.856C591.357 791.813 596.526 769.348 613.57 758.681C630.614 748.014 653.078 753.183 663.746 770.226C674.413 787.27 669.244 809.734 652.2 820.402Z" fill="#DD9D9D" stroke="black" stroke-width="5"/>
<path d="M628.322 811.725C611.278 822.392 588.814 817.223 578.147 800.18C567.479 783.136 572.648 760.672 589.692 750.004C606.736 739.337 629.2 744.506 639.867 761.55C650.535 778.593 645.366 801.058 628.322 811.725Z" fill="#DD9D9D" stroke="black" stroke-width="5"/>
</g>
<defs>
<filter id="filter0_d" x="-52.296" y="208.22" width="1255.3" height="1197.61" filterUnits="userSpaceOnUse" color-interpolation-filters="sRGB">
<feFlood flood-opacity="0" result="BackgroundImageFix"/>
<feColorMatrix in="SourceAlpha" type="matrix" values="0 0 0 0 0 0 0 0 0 0 0 0 0 0 0 0 0 0 127 0"/>
<feOffset dy="4"/>
<feGaussianBlur stdDeviation="2"/>
<feColorMatrix type="matrix" values="0 0 0 0 0 0 0 0 0 0 0 0 0 0 0 0 0 0 0.25 0"/>
<feBlend mode="normal" in2="BackgroundImageFix" result="effect1_dropShadow"/>
<feBlend mode="normal" in="SourceGraphic" in2="effect1_dropShadow" result="shape"/>
</filter>
<clipPath id="clip0">
<rect width="1080" height="1080" fill="white"/>
</clipPath>
</defs>
</svg>
